HIERARCHY
ROOT Pelvis
{
	OFFSET 0.000000 0.000000 0.000000
	CHANNELS 6 Xposition Yposition Zposition Xrotation Yrotation Zrotation
	JOINT LeftUpLeg_virtual
	{
		OFFSET 0.000000 0.000000 0.000000
		CHANNELS 3 Xrotation Yrotation Zrotation
		JOINT LeftUpLeg
		{
			OFFSET 18.735201 -5.666702 -4.541200
			CHANNELS 3 Xrotation Yrotation Zrotation
			JOINT LeftLeg
			{
				OFFSET -0.021200 -31.938179 0.493100
				CHANNELS 3 Xrotation Yrotation Zrotation
				JOINT LeftFoot
				{
					OFFSET 0.021200 -31.938179 -4.336299
					CHANNELS 3 Xrotation Yrotation Zrotation
					JOINT LeftToeBase
					{
						OFFSET 0.943001 -26.722000 15.023500
						CHANNELS 3 Xrotation Yrotation Zrotation
						End Site
						{
							OFFSET 0 0 0
						}
					}
				}
			}
		}
	}
	JOINT RightUpLeg_virtual
	{
		OFFSET 0.000000 0.000000 0.000000
		CHANNELS 3 Xrotation Yrotation Zrotation
		JOINT RightUpLeg
		{
			OFFSET -18.735201 -5.666702 -4.541200
			CHANNELS 3 Xrotation Yrotation Zrotation
			JOINT RightLeg
			{
				OFFSET 0.018946 -31.938133 0.493100
				CHANNELS 3 Xrotation Yrotation Zrotation
				JOINT RightFoot
				{
					OFFSET -0.018946 -31.938126 -4.336299
					CHANNELS 3 Xrotation Yrotation Zrotation
					JOINT RightToeBase
					{
						OFFSET -0.943001 -26.722004 15.023500
						CHANNELS 3 Xrotation Yrotation Zrotation
						End Site
						{
							OFFSET 0 0 0
						}
					}
				}
			}
		}
	}
	JOINT Hips_virtual
	{
		OFFSET 0.000000 0.000000 0.000000
		CHANNELS 3 Xrotation Yrotation Zrotation
		JOINT Hips
		{
			OFFSET -0.000000 -0.000000 -0.000000
			CHANNELS 3 Xrotation Yrotation Zrotation
			JOINT Spine
			{
				OFFSET 0.000000 10.199997 -0.299500
				CHANNELS 3 Xrotation Yrotation Zrotation
				JOINT Spine1
				{
					OFFSET 0.000000 11.900002 -1.516600
					CHANNELS 3 Xrotation Yrotation Zrotation
					JOINT Spine2
					{
						OFFSET 0.000000 13.600006 -2.842500
						CHANNELS 3 Xrotation Yrotation Zrotation
						JOINT Neck_virtual
						{
							OFFSET 0.000000 0.000000 0.000000
							CHANNELS 3 Xrotation Yrotation Zrotation
							JOINT Neck
							{
								OFFSET 0.000000 9.624100 -2.890100
								CHANNELS 3 Xrotation Yrotation Zrotation
								JOINT Head
								{
									OFFSET 0.000000 14.068802 -1.351900
									CHANNELS 3 Xrotation Yrotation Zrotation
									End Site
									{
										OFFSET 0 0 0
									}
								}
							}
						}
						JOINT LeftShoulder_virtual
						{
							OFFSET 0.000000 0.000000 0.000000
							CHANNELS 3 Xrotation Yrotation Zrotation
							JOINT LeftShoulder
							{
								OFFSET 15.263000 10.923401 -0.547700
								CHANNELS 3 Xrotation Yrotation Zrotation
								JOINT LeftArm
								{
									OFFSET 25.438599 -2.830597 -13.032500
									CHANNELS 3 Xrotation Yrotation Zrotation
									JOINT LeftForeArm
									{
										OFFSET 29.960503 0.000000 0.000000
										CHANNELS 3 Xrotation Yrotation Zrotation
										JOINT LeftHand
										{
											OFFSET 27.849251 0.000000 0.000000
											CHANNELS 3 Xrotation Yrotation Zrotation
											End Site
											{
												OFFSET 0 0 0
											}
										}
									}
								}
							}
						}
						JOINT RightShoulder_virtual
						{
							OFFSET 0.000000 0.000000 0.000000
							CHANNELS 3 Xrotation Yrotation Zrotation
							JOINT RightShoulder
							{
								OFFSET -15.263000 10.923401 -0.547700
								CHANNELS 3 Xrotation Yrotation Zrotation
								JOINT RightArm
								{
									OFFSET -25.438599 -2.830597 -13.032500
									CHANNELS 3 Xrotation Yrotation Zrotation
									JOINT RightForeArm
									{
										OFFSET -29.960503 0.000000 0.000000
										CHANNELS 3 Xrotation Yrotation Zrotation
										JOINT RightHand
										{
											OFFSET -27.849251 0.000000 0.000000
											CHANNELS 3 Xrotation Yrotation Zrotation
											End Site
											{
												OFFSET 0 0 0
											}
										}
									}
								}
							}
						}
					}
				}
			}
		}
	}
}
MOTION
Frames: 10
Frame Time: 0.03333333
0.218543 92.643196 3.212326 0.000000 0.000000 0.000000 -5.422816 -10.940717 -0.791995 -5.575710 22.467764 4.813641 19.543644 4.952181 0.658298 -6.551037 3.214470 -0.540681 0.000000 0.000000 0.000000 -4.974065 -9.244454 -1.145215 -11.303616 -9.962224 -14.140418 7.731797 -15.478834 0.161464 11.726518 0.596358 11.653062 0.000000 0.000000 0.000000 -5.376854 -10.817773 -0.739453 0.083909 0.562256 -1.258043 9.100994 2.744785 -1.636997 -3.184526 -4.216798 -0.476209 0.000000 0.000000 0.000000 -4.691088 3.440800 -1.914761 3.949800 -0.283665 -0.033901 0.000000 0.000000 0.000000 -6.250565 3.460562 -2.207965 3.734782 -18.619533 -1.192785 2.613312 2.359644 -81.886598 4.486437 -14.295621 -1.115932 0.000000 0.000000 0.000000 -5.294554 4.143639 -1.634763 3.606430 7.519181 4.990813 17.415755 -0.133330 80.416393 0.768242 27.845240 -0.290040 0.000000 0.000000 0.000000 
0.153215 92.580383 3.233280 0.000000 0.000000 0.000000 -5.531061 -10.789821 -0.787695 -5.726347 22.339257 4.833458 19.492749 4.843250 0.701534 -6.800390 3.215156 -0.691446 0.000000 0.000000 0.000000 -5.009964 -9.180940 -1.124001 -11.171193 -10.026832 -14.135576 7.977325 -15.537521 0.130528 11.359975 0.361025 11.688873 0.000000 0.000000 0.000000 -5.397336 -10.687371 -0.743792 0.092114 0.565118 -1.355960 9.117318 2.668828 -1.724979 -3.126571 -4.199176 -0.502440 0.000000 0.000000 0.000000 -4.746937 3.457451 -1.942234 3.946935 -0.274955 -0.011660 0.000000 0.000000 0.000000 -6.199292 3.464347 -2.201458 3.749325 -18.654097 -1.119159 2.436067 2.391976 -81.579404 4.573258 -14.410212 -1.102996 0.000000 0.000000 0.000000 -5.200927 4.152705 -1.687866 3.592030 7.505840 5.012969 17.175880 0.015256 80.148022 0.833472 28.151671 -0.142113 0.000000 0.000000 0.000000 
0.106000 92.451355 3.128288 0.000000 0.000000 0.000000 -5.614560 -10.379096 -0.793593 -6.359152 22.240484 5.014817 19.962425 4.516466 0.735485 -6.939291 2.968844 -0.984761 0.000000 0.000000 0.000000 -5.025582 -8.948299 -1.133828 -11.276127 -10.173697 -14.153825 8.533229 -15.564299 0.127952 10.667472 -0.168161 11.392330 0.000000 0.000000 0.000000 -5.368311 -10.386033 -0.761897 0.096575 0.468052 -1.422886 9.103550 2.575563 -1.809079 -3.104043 -4.192913 -0.553612 0.000000 0.000000 0.000000 -4.827525 3.442715 -1.994177 3.915313 -0.265767 0.024237 0.000000 0.000000 0.000000 -6.168440 3.446450 -2.222549 3.723416 -18.631803 -1.083473 2.303893 2.542132 -80.970656 4.722780 -14.692056 -1.128944 0.000000 0.000000 0.000000 -5.156811 4.124827 -1.755447 3.522622 7.443959 5.302955 16.769631 0.489141 79.484824 0.987348 28.208056 0.094546 0.000000 0.000000 0.000000 
0.101501 92.313614 2.931877 0.000000 0.000000 0.000000 -5.647136 -9.842033 -0.801445 -7.401655 22.144038 5.323077 20.963271 4.063029 0.751836 -6.906475 2.552027 -1.271268 0.000000 0.000000 0.000000 -5.001972 -8.560268 -1.175669 -11.562771 -10.344491 -14.177360 9.185250 -15.480707 0.125667 10.028708 -0.793465 10.968248 0.000000 0.000000 0.000000 -5.305744 -9.927909 -0.790835 0.082746 0.403860 -1.405666 9.071947 2.475053 -1.882999 -3.113578 -4.194709 -0.619216 0.000000 0.000000 0.000000 -4.918882 3.399445 -2.061829 3.858828 -0.255702 0.071419 0.000000 0.000000 0.000000 -6.158325 3.405976 -2.268504 3.658943 -18.541814 -1.092848 2.243977 2.795956 -80.179113 4.907805 -15.220769 -1.200137 0.000000 0.000000 0.000000 -5.159294 4.064453 -1.828839 3.404901 7.331133 5.821754 16.411992 1.109680 78.457461 1.258429 28.134215 0.390355 0.000000 0.000000 0.000000 
0.161749 92.200638 2.662727 0.000000 0.000000 0.000000 -5.610621 -9.317323 -0.795362 -8.608813 22.031882 5.638051 22.203526 3.568969 0.776568 -6.833278 2.033229 -1.431586 0.000000 0.000000 0.000000 -4.926057 -8.149087 -1.219494 -11.941790 -10.479124 -14.203907 9.628092 -15.157641 0.102411 9.829589 -1.298159 10.647833 0.000000 0.000000 0.000000 -5.241555 -9.391870 -0.816488 0.090485 0.425399 -1.405007 9.047234 2.384473 -1.965820 -3.143731 -4.199208 -0.693779 0.000000 0.000000 0.000000 -5.011134 3.336983 -2.137691 3.773896 -0.246308 0.128853 0.000000 0.000000 0.000000 -6.175154 3.347056 -2.327884 3.568405 -18.413770 -1.136076 2.262983 3.071541 -79.334491 5.077645 -16.012521 -1.320310 0.000000 0.000000 0.000000 -5.204989 3.983529 -1.903380 3.248469 7.158337 6.480448 16.204402 1.689216 77.207386 1.664714 28.021121 0.714150 0.000000 0.000000 0.000000 
0.293169 92.151489 2.374290 0.000000 0.000000 0.000000 -5.510012 -8.924120 -0.750983 -9.637756 21.950268 5.808098 23.243381 3.083858 0.819077 -6.746981 1.497286 -1.445162 0.000000 0.000000 0.000000 -4.825692 -7.772551 -1.245878 -12.330535 -10.482583 -14.250489 9.750781 -14.526132 0.052501 10.216506 -1.538487 10.538756 0.000000 0.000000 0.000000 -5.202040 -8.897702 -0.819912 0.127700 0.463479 -1.400803 9.067793 2.308602 -2.090290 -3.185704 -4.201052 -0.767301 0.000000 0.000000 0.000000 -5.102361 3.266451 -2.207384 3.655450 -0.239596 0.195804 0.000000 0.000000 0.000000 -6.209920 3.273924 -2.390642 3.461557 -18.277436 -1.208661 2.404597 3.269051 -78.563821 5.173825 -17.022409 -1.504362 0.000000 0.000000 0.000000 -5.278060 3.892835 -1.971952 3.066759 6.907724 7.179591 16.124029 2.030055 75.937326 2.216636 27.808567 1.010844 0.000000 0.000000 0.000000 
0.518393 92.171143 2.064503 0.000000 0.000000 0.000000 -5.413469 -8.795298 -0.669151 -10.249087 22.029571 5.720447 23.760111 2.781501 0.848470 -6.521034 1.098587 -1.238850 0.000000 0.000000 0.000000 -4.775971 -7.577402 -1.220176 -12.697359 -10.265546 -14.421434 9.541037 -13.574192 -0.013622 11.132722 -1.490134 10.619063 0.000000 0.000000 0.000000 -5.237510 -8.624261 -0.778258 0.156549 0.527261 -1.421112 9.183655 2.254111 -2.294343 -3.231266 -4.189916 -0.818960 0.000000 0.000000 0.000000 -5.192902 3.195351 -2.251767 3.498343 -0.234423 0.273535 0.000000 0.000000 0.000000 -6.248034 3.188175 -2.436458 3.353819 -18.152531 -1.284855 2.617180 3.343448 -77.900363 5.155363 -18.145670 -1.757272 0.000000 0.000000 0.000000 -5.358990 3.802704 -2.017671 2.879470 6.553395 7.813023 16.031257 2.054428 74.811574 2.895399 27.398122 1.248420 0.000000 0.000000 0.000000 
0.860656 92.222733 1.697632 0.000000 0.000000 0.000000 -5.382128 -9.026860 -0.538261 -10.402848 22.367544 5.334235 23.723764 2.770480 0.841527 -6.042366 0.984835 -0.785244 0.000000 0.000000 0.000000 -4.847862 -7.692610 -1.123072 -13.176253 -9.711111 -14.768609 9.187733 -12.290708 -0.037126 12.387358 -1.137626 10.872449 0.000000 0.000000 0.000000 -5.392828 -8.728796 -0.691391 0.182001 0.540817 -1.422045 9.435056 2.226658 -2.599560 -3.279437 -4.167427 -0.828103 0.000000 0.000000 0.000000 -5.281468 3.125509 -2.252979 3.297717 -0.224019 0.360718 0.000000 0.000000 0.000000 -6.291022 3.102170 -2.443003 3.250463 -18.038144 -1.370270 2.866282 3.325307 -77.338655 4.981360 -19.182113 -2.077143 0.000000 0.000000 0.000000 -5.441516 3.714390 -2.024652 2.717006 6.105807 8.300069 15.815513 1.843853 73.939304 3.660783 26.747868 1.420702 0.000000 0.000000 0.000000 
1.317465 92.255104 1.241074 0.000000 0.000000 0.000000 -5.482755 -9.731517 -0.391137 -10.198160 22.978488 4.695540 23.403539 3.055286 0.805239 -5.360862 1.229260 -0.137062 0.000000 0.000000 0.000000 -5.142941 -8.255631 -0.973255 -13.920939 -8.760531 -15.344447 8.901672 -10.732849 -0.006071 13.918716 -0.442698 11.259887 0.000000 0.000000 0.000000 -5.681428 -9.411704 -0.593207 0.180479 0.542862 -1.371621 9.844181 2.222486 -2.999699 -3.339322 -4.139472 -0.768005 0.000000 0.000000 0.000000 -5.372007 3.056234 -2.188618 3.062263 -0.203610 0.453016 0.000000 0.000000 0.000000 -6.335796 3.021000 -2.388475 3.144749 -17.912856 -1.483324 3.100703 3.310911 -76.787562 4.642159 -20.044201 -2.460034 0.000000 0.000000 0.000000 -5.534609 3.626315 -1.966217 2.600440 5.615633 8.626070 15.455233 1.539967 73.300053 4.473955 25.940988 1.528401 0.000000 0.000000 0.000000 
1.850527 92.249207 0.631165 0.000000 0.000000 0.000000 -5.750626 -10.973839 -0.300596 -9.755716 23.831874 3.894169 23.029969 3.596732 0.767377 -4.750861 1.763240 0.572580 0.000000 0.000000 0.000000 -5.618824 -9.416796 -0.844445 -14.920415 -7.552944 -16.032203 8.586472 -9.024804 0.116107 15.770278 0.581659 11.765978 0.000000 0.000000 0.000000 -6.056208 -10.721950 -0.535591 0.138622 0.585160 -1.248511 10.396978 2.228098 -3.452003 -3.417965 -4.118412 -0.617986 0.000000 0.000000 0.000000 -5.470291 2.982111 -2.042595 2.801705 -0.169870 0.546618 0.000000 0.000000 0.000000 -6.387090 2.941813 -2.253272 3.031819 -17.750837 -1.625847 3.300353 3.404771 -76.113634 4.173996 -20.765566 -2.883195 0.000000 0.000000 0.000000 -5.642707 3.530691 -1.828055 2.522901 5.148364 8.844490 14.962691 1.346939 72.802385 5.278841 25.134615 1.607150 0.000000 0.000000 0.000000 
